{"title":"Testament of Youth 2014 HDRIP x264 AC3 TiTAN","uid":11893283,"size":1356874006,"categoryP":"video","categoryS":"movies","magnet":"?xt=urn:btih:138cdfd500a6217128a9809832aa64e92e77852f&amp;dn=Testament+of+Youth+2014+HDRIP+x264+AC3+TiTAN&amp;tr=udp%3A%2F%2Ftracker.openbittorrent.com%3A80&amp;tr=udp%3A%2F%2Fopen.demonii.com%3A1337&amp;tr=udp%3A%2F%2Ftracker.coppersurfer.tk%3A6969&amp;tr=udp%3A%2F%2Fexodus.desync.com%3A6969","seeders":18,"leechers":1,"uploader":"xxxlavalxxx","files":3,"time":1431065845,"description":" &lt;a href=&quot;http://extraimago.com/image/N83&quot; rel=&quot;nofollow&quot; target=&quot;_NEW&quot;&gt;http://extraimago.com/image/N83&lt;/a&gt;\n &lt;a href=&quot;\nhttp://www.imdb.com/title/tt1441953/&quot; rel=&quot;nofollow&quot; target=&quot;_NEW&quot;&gt;\nhttp://www.imdb.com/title/tt1441953/&lt;/a&gt;\n\n\nA British woman recalls coming of age during World War I.\n\nDirector: James Kent\nWriters: Vera Brittain (autobiography), Juliette Towhidi\nStars: Colin Morgan, Georgina Bennett, Emily Bevan\nGenres: Biography | Drama | History | War\nCountry: UK\nLanguage: English\n\n\nSource: PLAYNOW THX\n\nGeneral\n\nFormat                                   : Matroska\nFormat version                           : Version 2\nFile size                                : 1.26 GiB\nDuration                                 : 2h 9mn\nOverall bit rate mode                    : Variable\nOverall bit rate                         : 1 395 Kbps\n\nVideo\nID                                       : 1\nFormat                                   : AVC\nFormat/Info                              : Advanced Video Codec\nFormat profile                           : &lt;a class=&quot;__cf_email__&quot; href=&quot;/cdn-cgi/l/email-protection&quot; data-cfemail=&quot;420a2b252a020e766c73&quot;&gt;[email&amp;#160;protected]&lt;/a&gt;&lt;script cf-hash='f9e31' type=&quot;text/javascript&quot;&gt;\n/* &lt;![CDATA[ */!function(){try{var t=&quot;currentScript&quot;in document?document.currentScript:function(){for(var t=document.getElementsByTagName(&quot;script&quot;),e=t.length;e--;)if(t[e].getAttribute(&quot;cf-hash&quot;))return t[e]}();if(t&amp;&amp;t.previousSibling){var e,r,n,i,c=t.previousSibling,a=c.getAttribute(&quot;data-cfemail&quot;);if(a){for(e=&quot;&quot;,r=parseInt(a.substr(0,2),16),n=2;a.length-n;n+=2)i=parseInt(a.substr(n,2),16)^r,e+=String.fromCharCode(i);e=document.createTextNode(e),c.parentNode.replaceChild(e,c)}}}catch(u){}}();/* ]]&gt; */&lt;/script&gt;\nFormat settings, CABAC                   : Yes\nFormat settings, ReFrames                : 3 frames\nCodec ID                                 : V_MPEG4/ISO/AVC\nDuration                                 : 2h 9mn\nBit rate mode                            : Variable\nBit rate                                 : 983 Kbps\nMaximum bit rate                         : 40.0 Mbps\nWidth                                    : 720 pixels\nHeight                                   : 304 pixels\nDisplay aspect ratio                     : 2.35:1\nFrame rate mode                          : Constant\nFrame rate                               : 23.976 fps\nColor space                              : YUV\nChroma subsampling                       : 4:2:0\nBit depth                                : 8 bits\nScan type                                : Progressive\nBits/(Pixel*Frame)                       : 0.187\nStream size                              : 912 MiB (70%)\nDefault                                  : Yes\nForced                                   : No\nColor primaries                          : BT.709\nTransfer characteristics                 : BT.709\nMatrix coefficients                      : BT.709\n\nAudio\nID                                       : 2\nFormat                                   : AC-3\nFormat/Info                              : Audio Coding 3\nMode extension                           : CM (complete main)\nFormat settings, Endianness              : Big\nCodec ID                                 : A_AC3\nDuration                                 : 2h 9mn\nBit rate mode                            : Constant\nBit rate                                 : 384 Kbps\nChannel(s)                               : 6 channels\nChannel positions                        : Front: L C R, Side: L R, LFE\nSampling rate                            : 48.0 KHz\nBit depth                                : 16 bits\nCompression mode                         : Lossy\nStream size                              : 356 MiB (28%)\nLanguage                                 : English\nDefault                                  : Yes\nForced                                   : No\n\n &lt;a href=&quot;\nhttp://extraimago.com/image/N89&quot; rel=&quot;nofollow&quot; target=&quot;_NEW&quot;&gt;\nhttp://extraimago.com/image/N89&lt;/a&gt; &lt;a href=&quot;\nhttp://extraimago.com/image/N8M&quot; rel=&quot;nofollow&quot; target=&quot;_NEW&quot;&gt;\nhttp://extraimago.com/image/N8M&lt;/a&gt; &lt;a href=&quot;\nhttp://extraimago.com/image/N8U&quot; rel=&quot;nofollow&quot; target=&quot;_NEW&quot;&gt;\nhttp://extraimago.com/image/N8U&lt;/a&gt; &lt;a href=&quot;\nhttp://extraimago.com/image/N8z&quot; rel=&quot;nofollow&quot; target=&quot;_NEW&quot;&gt;\nhttp://extraimago.com/image/N8z&lt;/a&gt; &lt;a href=&quot;\nhttp://extraimago.com/image/N80&quot; rel=&quot;nofollow&quot; target=&quot;_NEW&quot;&gt;\nhttp://extraimago.com/image/N80&lt;/a&gt; &lt;a href=&quot;\nhttp://extraimago.com/image/N8J&quot; rel=&quot;nofollow&quot; target=&quot;_NEW&quot;&gt;\nhttp://extraimago.com/image/N8J&lt;/a&gt;","torrent":{"xt":"urn:btih:138cdfd500a6217128a9809832aa64e92e77852f","amp;dn":"Testament+of+Youth+2014+HDRIP+x264+AC3+TiTAN","amp;tr":["udp%3A%2F%2Ftracker.openbittorrent.com%3A80","udp%3A%2F%2Fopen.demonii.com%3A1337","udp%3A%2F%2Ftracker.coppersurfer.tk%3A6969","udp%3A%2F%2Fexodus.desync.com%3A6969"],"infoHash":"138cdfd500a6217128a9809832aa64e92e77852f","infoHashBuffer":{"type":"Buffer","data":[19,140,223,213,0,166,33,113,40,169,128,152,50,170,100,233,46,119,133,47]},"announce":[],"urlList":[]}}